<?xml version="1.0" standalone="no"?>
<!DOCTYPE svg PUBLIC "-//W3C//DTD SVG 20010904//EN"
 "http://www.w3.org/TR/2001/REC-SVG-20010904/DTD/svg10.dtd">
<svg version="1.0" xmlns="http://www.w3.org/2000/svg"
 width="260.000000pt" height="260.000000pt" viewBox="0 0 260.000000 260.000000"
 preserveAspectRatio="xMidYMid meet">
<metadata>
Created by potrace 1.14, written by Peter Selinger 2001-2017
</metadata>
<g transform="translate(0.000000,260.000000) scale(0.100000,-0.100000)"
fill="#000000" stroke="none">
<path d="M1060 2571 l-30 -29 0 -150 0 -150 -32 -6 c-18 -4 -64 -22 -103 -40
l-70 -33 -100 98 c-99 96 -133 117 -177 106 -13 -4 -89 -73 -171 -155 -190
-192 -188 -181 -46 -327 l100 -103 -22 -43 c-12 -24 -32 -70 -44 -103 l-23
-61 -146 -5 c-202 -7 -190 9 -194 -252 -3 -205 2 -242 36 -270 10 -9 62 -15
155 -18 l139 -5 27 -75 c16 -41 36 -90 45 -109 l18 -34 -92 -92 c-80 -80 -92
-97 -97 -134 l-6 -42 149 -150 c82 -82 159 -152 172 -156 43 -10 77 9 167 96
l90 88 60 -28 c33 -16 84 -37 113 -46 l52 -17 0 -128 c0 -71 5 -138 10 -149
23 -42 58 -49 260 -49 271 0 270 0 270 205 l0 123 53 18 c28 9 78 30 111 46
l58 29 92 -90 c91 -89 125 -108 168 -98 13 4 89 73 171 155 188 190 188 188
33 341 l-85 84 21 41 c12 23 32 70 44 106 l23 65 145 5 c202 7 190 -9 194 255
3 223 -3 256 -54 275 -14 6 -85 10 -158 10 l-133 0 -31 83 c-17 45 -38 91 -46
102 -14 19 -9 26 85 121 88 88 101 106 106 143 l6 42 -149 150 c-82 82 -159
152 -171 156 -45 11 -79 -10 -178 -108 l-101 -99 -50 24 c-27 13 -73 32 -101
42 l-53 19 0 147 c0 141 -1 148 -24 175 l-24 28 -216 3 -216 3 -30 -30z m428
-223 l2 -166 73 -22 c39 -12 107 -40 150 -62 l79 -41 119 119 119 119 132
-133 133 -132 -118 -118 -118 -118 42 -78 c23 -43 52 -110 64 -149 l23 -72
164 -5 163 -5 0 -185 0 -185 -160 -3 -161 -2 -18 -72 c-10 -39 -38 -110 -62
-157 l-43 -86 112 -113 112 -112 -133 -132 -132 -133 -110 110 -110 110 -68
-37 c-37 -20 -108 -50 -157 -67 l-90 -30 -5 -153 -5 -153 -185 0 -185 0 -3
151 -3 152 -84 26 c-46 14 -118 45 -161 67 l-77 41 -108 -108 -109 -109 -132
133 -133 132 110 110 109 109 -47 98 c-25 54 -54 126 -63 160 l-17 63 -156 2
-156 3 0 185 0 185 160 3 160 2 18 63 c10 34 39 104 64 155 l47 93 -115 115
-114 114 133 132 132 133 118 -118 118 -117 77 40 c42 22 111 49 152 61 l75
22 0 162 c0 89 3 165 7 169 4 3 88 5 187 4 l181 -3 3 -167z"/>
<path d="M1190 1885 c-243 -44 -434 -242 -477 -493 -14 -83 -14 -101 0 -184
56 -332 361 -552 687 -494 254 45 444 238 487 494 14 83 14 101 0 184 -43 254
-233 449 -482 493 -96 17 -118 17 -215 0z m262 -95 c75 -23 167 -81 219 -136
38 -41 89 -113 89 -126 0 -5 -207 -8 -460 -8 -253 0 -460 3 -460 7 0 17 66
106 108 145 101 95 207 137 348 137 65 1 111 -5 156 -19z m333 -662 c-27 -88
-117 -201 -209 -260 -164 -106 -388 -106 -552 0 -92 59 -182 172 -209 260 l-6
22 491 0 491 0 -6 -22z"/>
</g>
</svg>
