<svg width="119" height="60" viewBox="0 0 119 60" fill="none" xmlns="http://www.w3.org/2000/svg">
<ellipse cx="30.2041" cy="30" rx="30.2041" ry="30" fill="white"/>
<rect x="30.2041" y="13" width="88.5986" height="35" rx="10" fill="white"/>
<path d="M20.1244 25.312H18.6164V23.128H24.9084V25.312H23.3224L25.7404 33.294L29.0944 23.492H31.3564L34.6844 33.294L37.1544 25.312H35.4384V23.128H41.4704V25.312H39.9364L35.8804 38H33.4624L30.1084 28.484L26.7804 38H24.3364L20.1244 25.312Z" fill="black"/>
<path d="M51.4625 33.599H45.6105C45.6992 34.283 45.9652 34.8213 46.4085 35.214C46.8519 35.594 47.4092 35.784 48.0805 35.784C48.5872 35.784 49.0685 35.689 49.5245 35.499C49.9932 35.309 50.4049 35.0493 50.7595 34.72L51.3485 35.86C50.9559 36.2653 50.4745 36.5947 49.9045 36.848C49.3345 37.0887 48.7012 37.209 48.0045 37.209C47.1812 37.209 46.4465 37.0507 45.8005 36.734C45.1545 36.4047 44.6479 35.9423 44.2805 35.347C43.9132 34.739 43.7295 34.036 43.7295 33.238C43.7295 32.4527 43.9005 31.7623 44.2425 31.167C44.5972 30.5717 45.0785 30.1093 45.6865 29.78C46.2945 29.4507 46.9785 29.286 47.7385 29.286C48.8912 29.286 49.7969 29.6407 50.4555 30.35C51.1269 31.0593 51.4625 31.9967 51.4625 33.162V33.599ZM49.6575 32.592C49.6575 31.9713 49.4802 31.4837 49.1255 31.129C48.7709 30.7617 48.3022 30.578 47.7195 30.578C47.1495 30.578 46.6745 30.7617 46.2945 31.129C45.9145 31.4837 45.6865 31.9713 45.6105 32.592H49.6575ZM52.4502 35.765H53.7042V27.234H52.4882V26.018H55.5852V35.765H56.7062V37H52.4502V35.765ZM57.4971 35.765H58.7511V27.234H57.5351V26.018H60.6321V35.765H61.7531V37H57.4971V35.765ZM71.607 35.765V37H68.681L68.662 36.468C67.9907 36.962 67.2053 37.209 66.306 37.209C65.6093 37.209 64.976 37.0507 64.406 36.734C63.8487 36.4047 63.4053 35.9423 63.076 35.347C62.7467 34.739 62.582 34.0297 62.582 33.219C62.582 32.421 62.7403 31.7243 63.057 31.129C63.3737 30.5337 63.8043 30.0777 64.349 29.761C64.9063 29.4443 65.5207 29.286 66.192 29.286C67.0787 29.286 67.8893 29.552 68.624 30.084V27.234H67.332V26.018H70.505V35.765H71.607ZM64.539 33.314C64.539 34.0867 64.7543 34.6947 65.185 35.138C65.6283 35.5687 66.1857 35.784 66.857 35.784C67.4777 35.784 68.0667 35.594 68.624 35.214V31.338C68.0033 30.92 67.3763 30.711 66.743 30.711C66.0843 30.711 65.5523 30.939 65.147 31.395C64.7417 31.851 64.539 32.4907 64.539 33.314ZM76.4815 37.209C75.6709 37.209 74.9552 37.0443 74.3345 36.715C73.7265 36.3857 73.2515 35.9233 72.9095 35.328C72.5675 34.72 72.3965 34.0233 72.3965 33.238C72.3965 32.4527 72.5675 31.7623 72.9095 31.167C73.2515 30.559 73.7265 30.0967 74.3345 29.78C74.9552 29.4507 75.6709 29.286 76.4815 29.286C77.2922 29.286 78.0079 29.4507 78.6285 29.78C79.2619 30.0967 79.7495 30.5527 80.0915 31.148C80.4335 31.7433 80.6045 32.4337 80.6045 33.219C80.6045 34.0043 80.4335 34.701 80.0915 35.309C79.7495 35.917 79.2619 36.3857 78.6285 36.715C78.0079 37.0443 77.2922 37.209 76.4815 37.209ZM76.5195 35.765C77.2035 35.765 77.7482 35.537 78.1535 35.081C78.5589 34.6123 78.7615 33.9917 78.7615 33.219C78.7615 32.459 78.5525 31.8573 78.1345 31.414C77.7292 30.958 77.1782 30.73 76.4815 30.73C75.7975 30.73 75.2529 30.958 74.8475 31.414C74.4422 31.8573 74.2395 32.4653 74.2395 33.238C74.2395 34.0107 74.4422 34.625 74.8475 35.081C75.2655 35.537 75.8229 35.765 76.5195 35.765ZM90.9508 35.765V37H86.7328V35.765H87.8158V32.174C87.8158 31.7053 87.7018 31.338 87.4738 31.072C87.2458 30.806 86.9291 30.673 86.5238 30.673C85.9411 30.673 85.2951 30.8883 84.5858 31.319V35.765H85.7448V37H81.4128V35.765H82.7048V30.711H81.4128V29.476H84.5098L84.5288 30.198C85.4661 29.59 86.3528 29.286 87.1888 29.286C87.9361 29.286 88.5378 29.5203 88.9938 29.989C89.4624 30.445 89.6968 31.0657 89.6968 31.851V35.765H90.9508ZM99.2038 33.599H93.3518C93.4404 34.283 93.7064 34.8213 94.1498 35.214C94.5931 35.594 95.1504 35.784 95.8218 35.784C96.3284 35.784 96.8098 35.689 97.2658 35.499C97.7344 35.309 98.1461 35.0493 98.5008 34.72L99.0898 35.86C98.6971 36.2653 98.2158 36.5947 97.6458 36.848C97.0758 37.0887 96.4424 37.209 95.7458 37.209C94.9224 37.209 94.1878 37.0507 93.5418 36.734C92.8958 36.4047 92.3891 35.9423 92.0218 35.347C91.6544 34.739 91.4708 34.036 91.4708 33.238C91.4708 32.4527 91.6418 31.7623 91.9838 31.167C92.3384 30.5717 92.8198 30.1093 93.4278 29.78C94.0358 29.4507 94.7198 29.286 95.4798 29.286C96.6324 29.286 97.5381 29.6407 98.1968 30.35C98.8681 31.0593 99.2038 31.9967 99.2038 33.162V33.599ZM97.3988 32.592C97.3988 31.9713 97.2214 31.4837 96.8668 31.129C96.5121 30.7617 96.0434 30.578 95.4608 30.578C94.8908 30.578 94.4158 30.7617 94.0358 31.129C93.6558 31.4837 93.4278 31.9713 93.3518 32.592H97.3988Z" fill="black"/>
</svg>
